<svg width="1920" height="478" viewBox="0 0 1920 478" fill="none" xmlns="http://www.w3.org/2000/svg">
<circle cx="485" cy="207" r="125" fill="#5072E8" fill-opacity="0.8"/>
<circle cx="558" cy="73" r="73" fill="#5072E8" fill-opacity="0.4"/>
<ellipse cx="1147" cy="98.5" rx="66" ry="61.5" fill="#5072E8" fill-opacity="0.4"/>
<circle cx="846" cy="83" r="40" fill="#5072E8" fill-opacity="0.7"/>
<circle cx="352" cy="132" r="40" fill="#5072E8" fill-opacity="0.4"/>
<circle cx="700" cy="167" r="125" fill="#5072E8" fill-opacity="0.9"/>
<circle cx="972" cy="187" r="145" fill="#5072E8" fill-opacity="0.7"/>
<circle cx="1236.1" cy="177.528" r="130.923" transform="rotate(4.56679 1236.1 177.528)" fill="#5072E8" fill-opacity="0.9"/>
<circle cx="1471" cy="162" r="125" fill="#5072E8"/>
<circle cx="1346" cy="303" r="91" fill="#5072E8" fill-opacity="0.6"/>
<circle cx="823" cy="301" r="91" fill="#5072E8" fill-opacity="0.6"/>
<circle cx="1103.17" cy="283.172" r="89" transform="rotate(-0.759285 1103.17 283.172)" fill="#5072E8"/>
<circle cx="1705" cy="323" r="73" fill="#5072E8" fill-opacity="0.4"/>
<circle cx="1439" cy="320" r="40" fill="#5072E8" fill-opacity="0.4"/>
<circle cx="933" cy="337" r="40" fill="#5072E8" fill-opacity="0.4"/>
<circle cx="445" cy="353" r="40" fill="#5072E8" fill-opacity="0.7"/>
<circle cx="182" cy="374" r="104" fill="#5072E8" fill-opacity="0.7"/>
<circle cx="598" cy="317" r="71" fill="#5072E8" fill-opacity="0.5"/>
<circle cx="341" cy="283" r="77" fill="#5072E8"/>
<circle cx="1576" cy="257" r="97" fill="#5072E8" fill-opacity="0.95"/>
<circle cx="1830" cy="257" r="125" fill="#5072E8" fill-opacity="0.95"/>
<circle cx="1721" cy="146" r="125" fill="#5072E8" fill-opacity="0.8"/>
<circle cx="203" cy="186" r="125" fill="#5072E8" fill-opacity="0.9"/>
<circle cx="11" cy="271" r="125" fill="#5072E8"/>
<circle cx="1875" cy="94" r="73" fill="#5072E8" fill-opacity="0.4"/>
</svg>
