<svg width="21" height="21" viewBox="0 0 21 21" fill="none" xmlns="http://www.w3.org/2000/svg">
<g clip-path="url(#clip0_1111_416)">
<path d="M7.9639 9.21729C7.35415 9.21729 6.87378 9.75166 6.87378 10.4042C6.87378 11.0544 7.3654 11.591 7.9639 11.591C8.57253 11.591 9.0529 11.0544 9.0529 10.4042C9.06528 9.75053 8.57253 9.21729 7.9639 9.21729ZM11.8654 9.21729C11.2556 9.21729 10.7753 9.75166 10.7753 10.4042C10.7753 11.0544 11.2669 11.591 11.8654 11.591C12.474 11.591 12.9544 11.0544 12.9544 10.4042C12.9533 9.75053 12.474 9.21729 11.8654 9.21729Z" fill="#5072E8"/>
<path d="M17.0596 0.25H2.73725C2.44887 0.250738 2.16346 0.30827 1.89731 0.419311C1.63116 0.530352 1.38949 0.692728 1.1861 0.897168C0.9827 1.10161 0.821564 1.34411 0.711888 1.61082C0.602212 1.87754 0.546143 2.16324 0.546882 2.45162V16.9011C0.546882 18.1195 1.53013 19.1027 2.73725 19.1027H14.8569L14.2887 17.1239L15.6579 18.3962L16.9505 19.5932L19.25 21.625V2.45162C19.2507 2.16324 19.1947 1.87754 19.085 1.61082C18.9753 1.34411 18.8142 1.10161 18.6108 0.897168C18.4074 0.692728 18.1657 0.530352 17.8996 0.419311C17.6334 0.30827 17.348 0.250738 17.0596 0.25ZM12.9331 14.2079C12.9331 14.2079 12.5484 13.7489 12.2289 13.3405C13.6284 12.9445 14.1627 12.0692 14.1627 12.0692C13.724 12.3572 13.3077 12.562 12.9331 12.7015C11.5693 13.2723 10.0673 13.428 8.61537 13.1492C8.07886 13.0438 7.55316 12.8895 7.04487 12.688C6.7768 12.5862 6.51628 12.4655 6.26525 12.3269C6.23262 12.3032 6.20112 12.2942 6.16962 12.2729C6.15277 12.2648 6.13782 12.2533 6.12575 12.2391C5.93337 12.1334 5.8265 12.0591 5.8265 12.0591C5.8265 12.0591 6.3395 12.9141 7.69737 13.3202C7.37675 13.7252 6.98075 14.2079 6.98075 14.2079C4.61938 14.1325 3.72275 12.5834 3.72275 12.5834C3.72275 9.14199 5.26175 6.35312 5.26175 6.35312C6.80075 5.19774 8.26437 5.23037 8.26437 5.23037L8.37125 5.35862C6.4475 5.91549 5.55988 6.75924 5.55988 6.75924C5.55988 6.75924 5.79612 6.63099 6.191 6.44987C7.334 5.94812 8.24187 5.80862 8.6165 5.77599C8.68062 5.76587 8.73462 5.75462 8.79875 5.75462C10.6519 5.50489 12.5362 5.85706 14.174 6.75924C14.174 6.75924 13.3291 5.95824 11.5122 5.40249L11.6619 5.23149C11.6619 5.23149 13.1266 5.19887 14.6645 6.35424C14.6645 6.35424 16.2035 9.14311 16.2035 12.5845C16.2035 12.5834 15.2956 14.1325 12.9331 14.2079Z" fill="#5072E8"/>
</g>
<defs>
<clipPath id="clip0_1111_416">
<rect width="21" height="21" fill="white"/>
</clipPath>
</defs>
</svg>
