<svg width="511" height="288" viewBox="0 0 511 288" fill="none" xmlns="http://www.w3.org/2000/svg">
<path d="M382.716 271.991C374.355 260.011 362.264 225.606 361.73 224.078C352.66 198.123 391.275 163.701 406.764 206.414C431.072 188.683 468.55 217.131 428.315 248.806C416.796 257.874 407.024 259.967 394.403 264.274" stroke="#5072E8" stroke-width="11" stroke-linecap="round"/>
<path d="M136.778 258.935C145.139 246.955 157.23 212.55 157.764 211.022C166.834 185.067 128.219 150.645 112.73 193.358C88.4216 175.627 50.9437 204.074 91.1791 235.75C102.697 244.818 112.47 246.911 125.091 251.218" stroke="#5072E8" stroke-width="11" stroke-linecap="round"/>
<path d="M261.848 178.5C246.132 168.344 215.163 133.447 213.791 131.895C202.993 119.685 201 98.9906 211.5 84.5C220.205 69.5724 237.833 66.2261 258.77 89.3505C279.092 56.6868 337.348 72.3325 304.833 129.15C295.524 145.416 284.924 152.59 272.009 163.752" stroke="#5072E8" stroke-width="11" stroke-linecap="round"/>
<path d="M12 208C19 211.5 34.5 218 39.5 222.5M4 171C16.6667 177.333 42.5 190.9 44.5 194.5" stroke="#5072E8" stroke-width="8" stroke-linecap="round"/>
<path d="M506.5 162C496.833 169.333 476 184.7 470 187.5M506.5 205.5C500.667 209.5 487.8 217.7 483 218.5" stroke="#5072E8" stroke-width="8" stroke-linecap="round"/>
<path d="M184 51.5C167.5 38 134 9.6 132 4" stroke="#5072E8" stroke-width="8" stroke-linecap="round"/>
<path d="M168 77.5C159.5 70.6667 141.4 55.4 137 49M358 22C351 29 335.1 44.2 327.5 49" stroke="#5072E8" stroke-width="8" stroke-linecap="round"/>
<path d="M356.5 59.5C352.833 65.8333 344.1 79 338.5 81" stroke="#5072E8" stroke-width="8" stroke-linecap="round"/>
</svg>
