<svg width="20" height="14" viewBox="0 0 20 14" fill="none" xmlns="http://www.w3.org/2000/svg">
<path fill-rule="evenodd" clip-rule="evenodd" d="M6.29 13.8005C13.837 13.8005 17.965 8.4911 17.965 3.88646C17.965 3.73553 17.965 3.58549 17.953 3.43628C18.7544 2.94442 19.4477 2.33333 20 1.63136C19.2505 1.91394 18.4565 2.09884 17.644 2.1805C18.497 1.7484 19.1383 1.06329 19.448 0.253035C18.6407 0.659266 17.7596 0.945001 16.842 1.09822C16.0892 0.423519 15.0599 0.0298373 13.9747 0.00162663C12.8895 -0.0265841 11.8346 0.313088 11.036 0.947462C10.514 1.36198 10.1291 1.88868 9.92052 2.4736C9.71196 3.05852 9.68728 3.68057 9.849 4.27641C8.22359 4.2095 6.63217 3.85108 5.17612 3.22446C3.72008 2.59783 2.43133 1.71655 1.392 0.636675C0.868251 1.40371 0.708074 2.31551 0.944877 3.18192C1.18168 4.04834 1.79718 4.80256 2.663 5.2871C2.01078 5.27114 1.37228 5.12197 0.8 4.85166V4.89546C0.801 6.55396 2.178 7.98215 4.092 8.31074C3.48779 8.45091 2.85463 8.47154 2.24 8.37054C2.777 9.79014 4.318 10.7618 6.073 10.7903C4.34672 11.9402 2.16567 12.4592 0 12.2352C1.88279 13.2592 4.06405 13.8012 6.29 13.7979" fill="#5072E8"/>
</svg>
